<?xml version="1.0" encoding="UTF-8"?>
<svg xmlns="http://www.w3.org/2000/svg" xmlns:xlink="http://www.w3.org/1999/xlink" width="96pt" height="96pt" viewBox="0 0 96 96" version="1.1">
<g id="surface295596">
<path style=" stroke:none;fill-rule:nonzero;fill:rgb(100%,100%,100%);fill-opacity:1;" d="M 48 0 C 21.484375 0 0 21.484375 0 48 C 0 74.515625 21.484375 96 48 96 C 74.515625 96 96 74.515625 96 48 C 96 21.484375 74.515625 0 48 0 Z M 48 8 C 70.09375 8 88 25.90625 88 48 C 88 70.09375 70.09375 88 48 88 C 25.90625 88 8 70.09375 8 48 C 8 25.90625 25.90625 8 48 8 Z M 48 23.25 C 47.265625 23.25 46.65625 23.234375 46 23.375 C 45.34375 23.515625 44.734375 23.875 44.25 24.25 C 43.765625 24.625 43.40625 25.140625 43.125 25.75 C 42.84375 26.359375 42.75 27.078125 42.75 28 C 42.75 28.90625 42.84375 29.625 43.125 30.25 C 43.40625 30.875 43.765625 31.375 44.25 31.75 C 44.734375 32.125 45.34375 32.34375 46 32.5 C 46.65625 32.65625 47.265625 32.75 48 32.75 C 48.71875 32.75 49.484375 32.65625 50.125 32.5 C 50.765625 32.34375 51.265625 32.125 51.75 31.75 C 52.234375 31.375 52.59375 30.875 52.875 30.25 C 53.15625 29.640625 53.375 28.90625 53.375 28 C 53.375 27.078125 53.15625 26.359375 52.875 25.75 C 52.59375 25.140625 52.234375 24.625 51.75 24.25 C 51.265625 23.875 50.765625 23.515625 50.125 23.375 C 49.484375 23.234375 48.71875 23.25 48 23.25 Z M 43.125 36.625 L 43.125 72.5 L 52.875 72.5 L 52.875 36.625 Z M 43.125 36.625 "/>
</g>
</svg>
